<svg xmlns="http://www.w3.org/2000/svg" viewBox="0 0 189 189"><defs><style>.cls-1{fill:#e7343f;}.cls-2{fill:#fff;}.cls-3{fill:none;stroke:#fff;stroke-linecap:round;stroke-linejoin:round;stroke-width:4px;}</style></defs><title>FinalFrontierAsset 2</title><g id="Layer_2" data-name="Layer 2"><g id="Layer_1-2" data-name="Layer 1"><path class="cls-1" d="M49.64,106.93c-2.18,6.56-4.27,13.12-6,19.16-.62,2.18-1.35,2.6-3.53,2.08a21.84,21.84,0,0,1-4.8-1.88,4.08,4.08,0,0,0,1.54,1.85,18.66,18.66,0,0,0,5.62,2.39c2.19.52,2.92.11,3.54-2.08,1.68-5.73,3.64-11.93,5.71-18.16C51,109.16,50.27,108,49.64,106.93Z"/><path class="cls-1" d="M60.78,76c-2,4.89-4.06,10.83-6.35,17.18,1.32-.51,2.6-1.07,3.82-1.68,1.73-4.81,3.34-9.29,4.89-13.13,4.35-2.11,8.38-2.62,10.81-2a2.5,2.5,0,0,0-.06-.63C73.37,73.32,67.44,72.8,60.78,76Z"/><path class="cls-1" d="M88,79.32a25.47,25.47,0,0,0-5.52-13,8.89,8.89,0,0,0-1.73-1.56A25.6,25.6,0,0,1,85.65,77c.73,5.83-2,10.62-6,14.57A67.36,67.36,0,0,1,62.76,103a152.56,152.56,0,0,0,12.8,17.9c1.66,1.87,1.14,2.92-.32,4.16a9.86,9.86,0,0,1-4.47,2.19c-2,.62-4.45.73-7.25-1.94.83.9,1.61,1.68,2.33,2.33,2.81,2.7,5.31,2.6,7.29,2a10,10,0,0,0,4.47-2.19c1.46-1.25,2-2.29.31-4.16a154.72,154.72,0,0,1-12.8-17.91A67.24,67.24,0,0,0,82,93.9C86,89.94,88.75,85.15,88,79.32Z"/><path class="cls-1" d="M129.05,74.46c-.31,2.81-2.6,21.23-4.26,33.62,1.18-3,2.52-6.31,3.94-9.68,1.27-9.89,2.47-19.6,2.69-21.57.31-2.5,0-3.85-1.77-5.1-.24-.17-.5-.33-.78-.49A6.47,6.47,0,0,1,129.05,74.46Z"/><path class="cls-1" d="M105.53,69.78c-.93,5.31-5,25.19-7.39,37.15,1.46-3,3.12-6.45,4.85-10,2.07-10.28,4.25-21.11,4.91-24.83.52-3,.1-4.47-1.56-5.62-.26-.18-.55-.35-.86-.53A7.45,7.45,0,0,1,105.53,69.78Z"/><path class="cls-1" d="M157.86,67.56a12.39,12.39,0,0,0-2.09-2c1.13,1.74.77,3.54-.49,6.05-6.87,13.53-20.09,40.59-26.33,54.85-1.25,2.81-2.71,3.12-6.35,2.08a30.06,30.06,0,0,1-5.89-2.15c1,2.18,3.45,3.11,8.26,4.52,3.64,1,5.1.73,6.35-2.08,6.24-14.26,19.46-41.32,26.33-54.85C159,71.31,159.31,69.44,157.86,67.56Z"/><path class="cls-1" d="M116,93.3c-5.72,10.82-14.36,28.1-17.07,33.31-1.35,2.7-2.49,2.81-5.72,2a29.13,29.13,0,0,1-5.52-2,3.8,3.8,0,0,0,2.06,2.2A28.68,28.68,0,0,0,95.62,131c3.22.83,4.37.73,5.72-2,2.23-4.29,8.51-16.81,13.85-27.13C115.48,98.78,115.78,95.81,116,93.3Z"/><path class="cls-2" d="M94.5,4A90.5,90.5,0,1,1,4,94.5,90.6,90.6,0,0,1,94.5,4m0-4A94.5,94.5,0,1,0,189,94.5,94.5,94.5,0,0,0,94.5,0Z"/><path class="cls-2" d="M41.24,123.72c-.63,2.19-1.35,2.6-3.54,2.08a18.55,18.55,0,0,1-5.62-2.39c-1.87-1.36-2.08-2.81-1.56-5.73,2-9.57,7.49-27.79,12.28-42.77a49.83,49.83,0,0,1-2.5-5.21c-.93-2.6-.83-3.85,1.36-5.1,10.2-5.72,29.76-10.61,36.11-3a25.47,25.47,0,0,1,5.52,13c.73,5.83-2,10.62-6,14.57a67,67,0,0,1-16.86,11.45,154.72,154.72,0,0,0,12.8,17.91c1.67,1.87,1.15,2.91-.31,4.16a9.91,9.91,0,0,1-4.48,2.18c-2,.63-4.47.73-7.28-2-4-3.54-9.89-11.45-13.84-18.32C45.09,111.13,43,117.68,41.24,123.72ZM52.06,90.83c12.28-4.68,20.3-14.15,19.47-17.49-.52-2.39-6.46-2.91-13.12.32C56.43,78.55,54.35,84.48,52.06,90.83Z"/><path class="cls-2" d="M120.24,126.22c-6.77-2-8.85-3-8.85-7.91,0-4,1.35-18.53,2.29-27.38C108,101.76,99.32,119,96.61,124.24c-1.35,2.71-2.5,2.81-5.73,2A28.82,28.82,0,0,1,85.06,124a3.84,3.84,0,0,1-2.29-4c0-10,4.26-39.14,8-58.08.42-2.08,1.15-3,2.6-3a18.93,18.93,0,0,1,8.23,2.81c1.66,1.15,2.08,2.6,1.56,5.62-.94,5.31-5,25.19-7.39,37.16,6.35-13.22,16.55-33.62,19.15-38,1.35-2.19,2.29-2.5,5.1-1.77A17.18,17.18,0,0,1,124.92,67c1.77,1.24,2.08,2.6,1.77,5.1-.31,2.81-2.6,21.23-4.27,33.61,6.35-16.23,17.17-39.65,20.3-45.17,1.35-2.39,2.39-2.81,5-1.66a15.78,15.78,0,0,1,5.42,3.95c1.45,1.88,1.14,3.75-.21,6.46-6.87,13.53-20.09,40.59-26.34,54.85C125.34,127,123.88,127.26,120.24,126.22Z"/><path class="cls-3" d="M180.64,20.6a9.11,9.11,0,0,0-12.9,0"/><path class="cls-3" d="M180.64,7.69a9.14,9.14,0,0,0,0,12.91"/><path class="cls-3" d="M167.74,20.6a9.14,9.14,0,0,0,0-12.91"/><path class="cls-3" d="M167.74,7.69a9.13,9.13,0,0,0,12.9,0"/></g></g></svg>